<svg xmlns="http://www.w3.org/2000/svg" width="150" height="50"><rect width="100%" height="100%" fill="#fff"/><path d="M2 33 C59 41,82 13,147 17" stroke="#93e344" fill="none"/><path d="M8 11 C58 43,87 16,137 18" stroke="#b745dd" fill="none"/><path d="M16 31 C89 34,62 32,130 15" stroke="#e59342" fill="none"/><path fill="#8be8d1" d="M56.38 40.15L56.48 40.25L54.00 33.31L54.12 33.43Q49.73 20.82 43.79 14.42L43.72 14.36L43.65 14.29Q45.71 15.39 48.30 16.00L48.27 15.98L48.22 15.92Q53.39 22.24 57.73 34.99L57.80 35.06L57.78 35.04Q60.81 26.91 61.49 25.31L61.56 25.38L61.48 25.30Q63.83 19.66 66.65 16.34L66.79 16.48L66.65 16.35Q68.81 16.07 71.44 15.20L71.36 15.12L71.37 15.13Q66.82 19.75 63.77 26.98L63.83 27.04L63.89 27.10Q62.46 30.73 58.77 40.25L58.74 40.23L58.64 40.13Q58.19 40.25 57.62 40.21L57.49 40.08L57.62 40.21Q57.05 40.21 56.48 40.25ZM61.41 42.59L61.36 42.54L61.36 42.54Q64.28 32.67 65.84 28.64L65.69 28.48L65.83 28.63Q68.84 20.94 73.26 16.07L73.14 15.94L73.27 16.08Q72.15 16.36 70.05 17.08L70.11 17.14L71.30 15.85L71.28 15.84Q71.87 15.17 72.48 14.53L72.44 14.49L72.37 14.42Q69.54 15.39 66.53 15.96L66.63 16.06L66.51 15.94Q62.25 21.39 58.37 32.85L58.27 32.75L58.33 32.81Q54.69 22.70 51.49 18.32L51.52 18.35L51.49 18.32Q51.09 18.22 50.22 18.07L50.26 18.12L50.26 18.11Q49.89 17.60 48.29 15.54L48.36 15.61L48.35 15.60Q45.41 14.90 42.71 13.49L42.69 13.48L42.64 13.43Q49.32 20.57 53.70 33.36L53.71 33.37L53.80 33.45Q55.02 37.12 56.20 40.69L56.04 40.53L56.21 40.70Q56.44 40.63 57.28 40.52L57.25 40.48L57.40 40.64Q57.68 41.26 58.36 42.59L58.46 42.68L58.27 42.50Q59.22 42.53 59.94 42.61L59.87 42.53L59.86 42.53Q60.74 42.68 61.50 42.68Z"/><path d="M6 39 C94 22,68 24,134 48" stroke="#a2f188" fill="none"/><path d="M8 28 C93 37,95 10,137 46" stroke="#e3e377" fill="none"/><path fill="#ef89bc" d="M24.20 29.73L24.04 29.57L24.20 29.73Q24.05 33.84 23.32 37.99L23.30 37.96L23.35 38.02Q25.71 37.56 28.80 37.44L28.72 37.37L28.68 37.33Q30.15 37.65 31.21 36.65L31.13 36.56L31.18 36.61Q32.28 35.64 32.28 34.31L32.12 34.14L32.14 34.17Q32.26 33.97 32.22 33.71L32.05 33.54L32.14 33.63Q32.02 30.74 29.78 29.90L29.80 29.92L29.75 29.87Q29.02 29.60 28.34 29.68L28.26 29.60L28.29 29.62Q27.18 29.50 26.15 29.54L26.27 29.67L26.27 29.66Q25.09 29.58 24.06 29.58ZM22.86 19.17L22.83 19.14L22.81 19.12Q23.84 22.59 24.11 26.97L24.06 26.92L23.95 26.81Q25.50 27.03 28.17 27.07L28.09 26.99L28.06 26.96Q31.07 27.08 31.41 23.54L31.42 23.55L31.46 23.58Q31.62 21.62 30.21 20.78L30.20 20.77L30.26 20.82Q29.22 20.17 24.80 19.52L24.89 19.61L24.86 19.58Q23.81 19.44 22.89 19.21ZM19.24 42.09L19.15 42.00L19.30 42.15Q21.75 35.46 21.49 28.08L21.50 28.09L21.44 28.04Q21.21 20.80 18.28 14.32L18.24 14.28L18.32 14.36Q22.07 16.86 28.29 17.10L28.24 17.05L28.15 16.96Q34.53 17.37 34.87 20.26L34.82 20.20L34.91 20.30Q35.25 23.08 33.85 25.74L33.68 25.58L33.81 25.71Q33.02 27.16 31.42 27.85L31.30 27.73L31.48 27.91Q34.98 28.44 35.21 33.81L35.22 33.81L35.23 33.82Q35.34 34.96 35.26 36.37L35.28 36.39L35.27 36.38Q35.19 37.67 34.26 38.60L34.31 38.66L34.21 38.55Q33.34 39.55 32.01 39.70L32.02 39.72L32.14 39.83Q30.50 39.76 29.43 39.76L29.44 39.76L29.59 39.92Q23.78 39.81 19.25 42.10ZM32.00 42.36L32.06 42.42L32.08 42.44Q33.00 42.49 34.87 42.60L34.86 42.60L34.75 42.49Q36.24 42.61 37.35 41.73L37.36 41.75L37.28 41.67Q38.22 40.89 38.10 39.33L38.14 39.36L37.96 39.19Q37.94 38.29 37.22 34.83L37.29 34.90L37.20 34.81Q36.54 31.59 34.67 30.11L34.73 30.17L34.27 29.29L34.29 29.30Q35.86 27.80 36.43 24.03L36.62 24.22L36.44 24.04Q36.78 23.08 36.70 21.67L36.54 21.50L36.55 21.51Q36.56 20.27 35.45 19.43L35.39 19.37L35.39 19.37Q35.03 19.12 34.92 19.09L35.08 19.25L35.09 19.26Q34.81 18.71 33.97 17.91L33.84 17.78L34.01 17.95Q32.40 16.80 28.18 16.61L28.25 16.68L28.20 16.63Q21.66 16.45 17.66 13.56L17.49 13.38L17.55 13.45Q20.81 20.43 21.11 27.97L21.16 28.02L21.23 28.09Q21.41 35.77 18.59 42.69L18.66 42.76L20.72 41.82L20.82 41.92Q20.32 42.94 19.82 44.08L19.95 44.21L19.94 44.20Q24.16 42.25 29.19 42.25L29.18 42.25L29.10 42.17Q30.66 42.31 32.10 42.46ZM29.90 31.85L29.90 31.84L29.82 31.76Q30.71 31.85 31.62 32.31L31.56 32.26L31.54 32.23Q31.57 32.49 31.73 33.56L31.85 33.69L31.85 33.69Q32.07 35.09 31.14 36.14L31.14 36.14L31.08 36.07Q30.04 37.01 28.63 36.90L28.80 37.07L27.19 37.06L27.29 37.15Q26.46 37.13 25.74 37.24L25.78 37.28L25.83 37.33Q26.14 35.51 26.22 32.05L26.19 32.02L26.20 32.03Q26.72 31.83 27.98 31.79L28.11 31.93L28.01 31.83Q29.26 31.78 29.87 31.82ZM28.90 22.28L28.83 22.21L29.19 22.19L29.27 22.27Q29.50 22.27 29.69 22.31L29.63 22.25L30.08 22.32L30.36 22.41L31.06 22.58L31.03 22.55Q31.05 22.72 31.05 23.03L31.14 23.11L31.16 23.67L31.17 23.67Q31.09 24.85 30.21 25.78L30.20 25.77L30.23 25.80Q29.31 26.69 28.09 26.69L28.09 26.69L28.02 26.61Q26.99 26.61 26.99 26.61L27.16 26.78L27.04 26.67Q25.73 26.65 26.08 26.65L26.06 26.64L26.16 26.74Q25.99 25.09 25.69 22.04L25.83 22.18L25.70 22.05Q27.44 22.34 28.96 22.34Z"/><path fill="#af7be4" d="M83.22 19.44L83.07 19.28L83.16 19.37Q83.99 23.60 84.14 27.18L84.09 27.13L84.10 27.14Q85.33 27.34 86.40 27.34L86.35 27.29L88.42 27.15L88.52 27.26Q89.53 27.20 90.41 25.79L90.49 25.87L90.33 25.71Q91.10 24.58 91.22 23.40L91.32 23.50L91.21 23.40Q91.68 20.48 87.46 19.98L87.33 19.86L87.41 19.94Q85.76 19.92 83.13 19.35ZM84.09 29.87L84.17 29.94L84.22 29.99Q84.11 36.16 82.97 40.58L82.89 40.51L82.91 40.52Q81.49 40.97 79.17 42.04L79.12 41.98L79.24 42.11Q81.52 35.36 81.25 28.09L81.37 28.21L81.35 28.19Q80.90 20.66 78.12 14.22L78.13 14.23L78.12 14.22Q82.40 17.13 88.64 17.13L88.66 17.15L88.50 16.99Q94.59 17.03 94.74 20.49L94.71 20.46L94.86 20.61Q94.96 23.07 93.97 25.73L93.89 25.65L93.90 25.66Q93.42 26.71 92.47 27.92L92.46 27.92L92.55 28.01Q91.16 29.55 88.61 29.82L88.59 29.79L88.76 29.96Q86.44 29.93 84.20 29.97ZM90.38 32.27L90.29 32.19L90.31 32.20Q94.38 32.35 95.64 27.55L95.66 27.58L95.62 27.54Q96.74 24.05 96.59 22.03L96.60 22.05L96.47 21.92Q96.39 20.43 95.63 19.44L95.67 19.47L95.67 19.48Q95.31 19.12 94.81 18.89L94.73 18.80L94.77 18.84Q94.70 18.62 94.09 17.86L94.16 17.93L94.15 17.92Q92.60 16.60 88.64 16.60L88.60 16.55L88.72 16.68Q81.86 16.71 77.64 13.55L77.51 13.43L77.63 13.54Q80.71 20.55 80.98 28.01L81.03 28.06L81.00 28.03Q81.22 35.64 78.56 42.72L78.64 42.81L78.71 42.88Q79.66 42.11 80.65 41.72L80.76 41.84L80.21 42.82L80.27 42.87Q80.18 43.54 79.91 44.11L79.87 44.07L79.78 43.98Q82.31 43.04 85.20 42.51L85.14 42.45L85.25 42.56Q86.03 36.98 86.10 32.26L85.98 32.14L86.09 32.24Q87.12 32.10 88.11 32.10L88.14 32.13L88.22 32.20Q89.59 32.24 90.39 32.28ZM89.29 22.20L89.26 22.17L89.34 22.24Q89.76 22.17 90.75 22.40L90.80 22.45L90.81 22.46Q91.02 22.79 91.06 23.09L90.97 23.00L91.08 23.12Q91.04 23.30 90.96 23.57L90.96 23.57L90.93 23.53Q90.87 24.80 90.15 25.68L90.04 25.57L90.20 25.73Q89.54 26.71 88.51 26.90L88.52 26.91L88.52 26.91Q87.82 26.94 86.19 26.94L86.04 26.79L86.19 26.94Q86.13 24.63 85.90 22.27L85.90 22.27L87.60 22.29L87.61 22.31Q88.38 22.24 89.25 22.16Z"/><path fill="#dc7b5a" d="M121.16 40.86L121.19 40.88L121.24 40.94Q120.02 39.34 118.73 36.25L118.57 36.10L116.53 31.05L116.48 31.00Q114.84 34.96 114.23 36.25L114.29 36.31L114.23 36.25Q112.92 39.31 111.32 41.22L111.36 41.26L111.23 41.12Q110.93 41.21 110.17 41.33L110.17 41.33L110.23 41.38Q110.12 33.85 104.30 27.92L104.32 27.94L104.39 28.00Q102.60 26.14 100.58 24.65L100.50 24.58L100.50 24.58Q102.42 25.20 104.28 25.50L104.27 25.48L104.34 25.56Q110.37 30.48 111.81 36.73L111.80 36.71L111.73 36.64Q112.76 34.93 113.94 31.73L113.90 31.69L113.78 31.57Q115.25 27.94 115.82 26.65L115.85 26.68L117.20 26.61L117.10 26.52Q117.98 28.23 119.16 31.51L119.29 31.64L119.20 31.55Q120.55 35.22 121.20 36.63L121.22 36.65L121.09 36.52Q123.10 30.43 128.58 25.86L128.58 25.85L128.53 25.80Q129.69 25.67 132.43 25.10L132.49 25.16L132.39 25.06Q123.80 31.12 122.62 41.10L122.69 41.16L121.88 40.89L121.96 40.97Q121.68 41.00 121.34 41.04ZM124.28 43.45L126.37 43.67L126.35 43.65Q126.07 42.15 126.07 40.62L126.06 40.62L126.04 40.60Q125.91 37.23 127.32 34.00L127.45 34.12L127.38 34.06Q129.45 29.62 133.57 26.54L133.58 26.55L133.50 26.47Q132.31 26.77 130.45 27.11L130.49 27.15L130.38 27.05Q132.32 25.37 133.62 24.46L133.62 24.46L131.10 24.91L131.06 24.87Q129.99 25.25 128.66 25.40L128.68 25.42L128.58 25.32Q123.34 29.49 121.40 34.51L121.45 34.56L121.46 34.57Q120.81 32.40 119.44 28.13L119.52 28.21L119.45 28.15Q119.08 28.12 118.82 28.12L118.85 28.15L118.26 28.10L118.29 28.12Q118.34 27.98 117.54 26.23L117.38 26.07L115.49 26.24L115.44 26.19Q114.48 29.00 112.38 34.63L112.34 34.59L112.33 34.58Q111.07 30.96 107.99 27.68L107.93 27.62L107.87 27.57Q107.69 27.65 107.38 27.61L107.29 27.52L106.87 27.56L106.74 27.43Q105.89 26.62 104.10 25.02L104.16 25.07L104.08 25.00Q101.03 24.46 99.36 23.97L99.31 23.92L99.36 23.97Q110.05 31.38 109.67 41.70L109.61 41.64L109.58 41.61Q109.82 41.66 110.18 41.62L110.24 41.68L110.21 41.65Q110.51 41.55 110.70 41.55L110.71 41.56L110.79 41.64Q110.75 41.44 110.94 43.54L110.94 43.54L112.90 43.41L113.00 43.51Q115.52 40.62 117.76 34.87L117.67 34.78L117.66 34.77Q119.30 38.77 121.17 41.43L121.17 41.43L121.04 41.31Q121.38 41.30 121.65 41.32L121.58 41.25L121.58 41.26Q121.88 41.31 122.15 41.31L122.23 41.39L124.32 43.49Z"/></svg>